<svg width="326" height="37" xmlns="http://www.w3.org/2000/svg"><path d="M27.35 17.742c2.034.712 3.627 1.822 4.779 3.33 1.152 1.508 1.728 3.33 1.728 5.465 0 3.118-1.254 5.524-3.762 7.219-2.508 1.694-6.134 2.542-10.879 2.542H0V.712h18.2c4.541 0 7.998.839 10.37 2.516 2.373 1.678 3.559 3.94 3.559 6.787 0 1.694-.415 3.211-1.246 4.55-.83 1.338-2.008 2.398-3.533 3.177zM9.964 7.982v6.862h6.914c3.389 0 5.084-1.152 5.084-3.457 0-2.27-1.695-3.406-5.084-3.406H9.964zm8.439 21.046c3.525 0 5.287-1.203 5.287-3.61 0-2.406-1.762-3.609-5.287-3.609H9.964v7.219h8.439zm38.636 7.981c-3.762 0-7.143-.796-10.142-2.39-3-1.592-5.355-3.795-7.066-6.608-1.712-2.813-2.568-5.982-2.568-9.506 0-3.525.856-6.694 2.568-9.507 1.711-2.813 4.067-5.016 7.066-6.609C49.897.796 53.277 0 57.039 0 60.8 0 64.182.796 67.18 2.39c3 1.592 5.355 3.795 7.066 6.608 1.712 2.813 2.567 5.982 2.567 9.507 0 3.524-.855 6.693-2.567 9.506-1.711 2.813-4.067 5.016-7.066 6.609-3 1.593-6.38 2.39-10.142 2.39zm0-8.337c1.796 0 3.423-.424 4.88-1.27 1.458-.848 2.61-2.043 3.457-3.585.847-1.542 1.271-3.313 1.271-5.312 0-2-.424-3.77-1.27-5.313-.848-1.542-2-2.737-3.458-3.584-1.457-.847-3.084-1.27-4.88-1.27-1.796 0-3.423.423-4.88 1.27-1.458.847-2.61 2.042-3.457 3.584-.848 1.542-1.271 3.313-1.271 5.313 0 2 .423 3.77 1.27 5.312.848 1.542 2 2.737 3.458 3.584 1.457.847 3.084 1.271 4.88 1.271zm43.008 8.337c-3.762 0-7.143-.796-10.142-2.39-3-1.592-5.355-3.795-7.066-6.608-1.712-2.813-2.568-5.982-2.568-9.506 0-3.525.856-6.694 2.568-9.507 1.711-2.813 4.067-5.016 7.066-6.609C92.905.796 96.285 0 100.047 0c3.762 0 7.142.796 10.142 2.39 3 1.592 5.355 3.795 7.066 6.608 1.712 2.813 2.567 5.982 2.567 9.507 0 3.524-.855 6.693-2.567 9.506-1.711 2.813-4.067 5.016-7.066 6.609-3 1.593-6.38 2.39-10.142 2.39zm0-8.337c1.796 0 3.423-.424 4.88-1.27 1.458-.848 2.61-2.043 3.457-3.585.847-1.542 1.271-3.313 1.271-5.312 0-2-.424-3.77-1.27-5.313-.848-1.542-2-2.737-3.458-3.584-1.457-.847-3.084-1.27-4.88-1.27-1.796 0-3.423.423-4.88 1.27-1.458.847-2.61 2.042-3.457 3.584-.848 1.542-1.271 3.313-1.271 5.313 0 2 .423 3.77 1.27 5.312.848 1.542 2 2.737 3.458 3.584 1.457.847 3.084 1.271 4.88 1.271zm38.788-5.287l-3.761 4.016v8.897h-9.965V.712h9.965v14.793L148.85.712h11.083l-14.54 15.76 15.302 19.826h-11.692l-10.168-12.913zm56.633 12.913l-.102-18.861-9.15 15.353h-4.474l-9.1-14.845v18.353h-9.303V.712h8.286l12.506 20.538 12.2-20.538h8.287l.102 35.586h-9.252zm40.212-6.914h-15.048l-2.796 6.914h-10.27L223.277.712h9.913l15.76 35.586h-10.473l-2.796-6.914zm-2.949-7.422l-4.575-11.388-4.576 11.388h9.151zm34.62 4.88h-5.49v9.456h-10.066V.712h16.268c3.22 0 6.015.533 8.388 1.601 2.372 1.068 4.202 2.593 5.49 4.575 1.288 1.983 1.932 4.313 1.932 6.99 0 2.576-.602 4.821-1.805 6.736-1.203 1.915-2.923 3.415-5.16 4.5l7.677 11.184h-10.778l-6.456-9.456zm6.355-12.964c0-1.66-.526-2.948-1.576-3.863-1.051-.915-2.61-1.373-4.677-1.373h-5.592v10.422h5.592c2.067 0 3.626-.45 4.677-1.347 1.05-.898 1.576-2.178 1.576-3.839zm29.434 9.507l-3.762 4.016v8.897h-9.964V.712h9.964v14.793L313.155.712h11.082l-14.539 15.76L325 36.297h-11.692L303.14 23.385z" fill="#FFF" fill-rule="evenodd"/></svg>