<?xml version="1.0" encoding="UTF-8"?>
<svg width="20px" height="172px" viewBox="0 0 20 172" version="1.1" xmlns="http://www.w3.org/2000/svg" xmlns:xlink="http://www.w3.org/1999/xlink">
    <!-- Generator: Sketch 43.2 (39069) - http://www.bohemiancoding.com/sketch -->
    <title>desktop-logo</title>
    <desc>Created with Sketch.</desc>
    <defs></defs>
    <g id="Page-1" stroke="none" stroke-width="1" fill="none" fill-rule="evenodd">
        <g id="desktop-logo" fill-rule="nonzero" fill="#FFFFFF">
            <path d="M-61.3921889,85.0987798 C-60.3219337,85.473254 -59.48358,86.0572464 -58.8771026,86.8507742 C-58.2706247,87.6443026 -57.9673905,88.6027629 -57.9673905,89.726185 C-57.9673905,91.3667375 -58.6273711,92.6327972 -59.9473521,93.5244018 C-61.2673332,94.4160063 -63.1759258,94.8618017 -65.6731868,94.8618017 L-75.7870453,94.8618017 L-75.7870453,76.1381983 L-66.2083116,76.1381983 C-63.8180758,76.1381983 -61.99867,76.5795356 -60.7500389,77.4622244 C-59.5014084,78.3449128 -58.8771026,79.5351875 -58.8771026,81.0330833 C-58.8771026,81.9246878 -59.0956095,82.7226617 -59.53263,83.4270296 C-59.9696511,84.131397 -60.5894979,84.6886418 -61.3921889,85.0987798 Z M-70.5428221,79.9631626 L-70.5428221,83.5741438 L-66.9039737,83.5741438 C-65.1202158,83.5741438 -64.22835,82.9678615 -64.22835,81.7552794 C-64.22835,80.5605287 -65.1202158,79.9631626 -66.9039737,79.9631626 L-70.5428221,79.9631626 Z M-66.1012868,91.0368374 C-64.2461784,91.0368374 -63.3186379,90.4038075 -63.3186379,89.1377288 C-63.3186379,87.87165 -64.2461784,87.2386201 -66.1012868,87.2386201 L-70.5428221,87.2386201 L-70.5428221,91.0368374 L-66.1012868,91.0368374 Z M-45.7665456,95.2362738 C-47.7465172,95.2362738 -49.5257893,94.817226 -51.1044152,93.9791176 C-52.6830411,93.1410092 -53.9227342,91.9819407 -54.8235321,90.5018768 C-55.72433,89.0218134 -56.1747221,87.3545376 -56.1747221,85.5 C-56.1747221,83.6454624 -55.72433,81.9781866 -54.8235321,80.4981232 C-53.9227342,79.0180593 -52.6830411,77.8589908 -51.1044152,77.0208824 C-49.5257893,76.182774 -47.7465172,75.7637262 -45.7665456,75.7637262 C-43.7865741,75.7637262 -42.0073021,76.182774 -40.4286761,77.0208824 C-38.8500502,77.8589908 -37.6103568,79.0180593 -36.709559,80.4981232 C-35.8087611,81.9781866 -35.3583689,83.6454624 -35.3583689,85.5 C-35.3583689,87.3545376 -35.8087611,89.0218134 -36.709559,90.5018768 C-37.6103568,91.9819407 -38.8500502,93.1410092 -40.4286761,93.9791176 C-42.0073021,94.817226 -43.7865741,95.2362738 -45.7665456,95.2362738 Z M-45.7665456,90.8496014 C-44.8211538,90.8496014 -43.9649628,90.6267031 -43.1979468,90.1809009 C-42.4309308,89.7350986 -41.8244621,89.1065268 -41.3785226,88.2951665 C-40.9325831,87.4838063 -40.7096166,86.5520935 -40.7096166,85.5 C-40.7096166,84.4479065 -40.9325831,83.5161937 -41.3785226,82.7048335 C-41.8244621,81.8934732 -42.4309308,81.2649014 -43.1979468,80.8190991 C-43.9649628,80.3732969 -44.8211538,80.1503986 -45.7665456,80.1503986 C-46.7119375,80.1503986 -47.5681285,80.3732969 -48.3351445,80.8190991 C-49.1021605,81.2649014 -49.7086292,81.8934732 -50.1545687,82.7048335 C-50.6005083,83.5161937 -50.8234747,84.4479065 -50.8234747,85.5 C-50.8234747,86.5520935 -50.6005083,87.4838063 -50.1545687,88.2951665 C-49.7086292,89.1065268 -49.1021605,89.7350986 -48.3351445,90.1809009 C-47.5681285,90.6267031 -46.7119375,90.8496014 -45.7665456,90.8496014 Z M-23.1307681,95.2362738 C-25.1107396,95.2362738 -26.8900116,94.817226 -28.4686376,93.9791176 C-30.0472635,93.1410092 -31.2869568,91.9819407 -32.1877547,90.5018768 C-33.0885526,89.0218134 -33.5389447,87.3545376 -33.5389447,85.5 C-33.5389447,83.6454624 -33.0885526,81.9781866 -32.1877547,80.4981232 C-31.2869568,79.0180593 -30.0472635,77.8589908 -28.4686376,77.0208824 C-26.8900116,76.182774 -25.1107396,75.7637262 -23.1307681,75.7637262 C-21.1507965,75.7637262 -19.3715244,76.182774 -17.7928985,77.0208824 C-16.2142725,77.8589908 -14.9745792,79.0180593 -14.0737814,80.4981232 C-13.1729835,81.9781866 -12.7225913,83.6454624 -12.7225913,85.5 C-12.7225913,87.3545376 -13.1729835,89.0218134 -14.0737814,90.5018768 C-14.9745792,91.9819407 -16.2142725,93.1410092 -17.7928985,93.9791176 C-19.3715244,94.817226 -21.1507965,95.2362738 -23.1307681,95.2362738 Z M-23.1307681,90.8496014 C-22.1853762,90.8496014 -21.3291852,90.6267031 -20.5621692,90.1809009 C-19.7951532,89.7350986 -19.1886845,89.1065268 -18.7427449,88.2951665 C-18.2968054,87.4838063 -18.073839,86.5520935 -18.073839,85.5 C-18.073839,84.4479065 -18.2968054,83.5161937 -18.7427449,82.7048335 C-19.1886845,81.8934732 -19.7951532,81.2649014 -20.5621692,80.8190991 C-21.3291852,80.3732969 -22.1853762,80.1503986 -23.1307681,80.1503986 C-24.0761598,80.1503986 -24.9323509,80.3732969 -25.6993669,80.8190991 C-26.4663829,81.2649014 -27.0728516,81.8934732 -27.5187911,82.7048335 C-27.9647306,83.5161937 -28.1876971,84.4479065 -28.1876971,85.5 C-28.1876971,86.5520935 -27.9647306,87.4838063 -27.5187911,88.2951665 C-27.0728516,89.1065268 -26.4663829,89.7350986 -25.6993669,90.1809009 C-24.9323509,90.6267031 -24.0761598,90.8496014 -23.1307681,90.8496014 Z M-2.71575819,88.0678086 L-4.69571983,90.1809009 L-4.69571983,94.8618017 L-9.93994253,94.8618017 L-9.93994253,76.1381983 L-4.69571983,76.1381983 L-4.69571983,83.9218678 L2.55522076,76.1381983 L8.38808074,76.1381983 L0.735796553,84.4300798 L8.78942426,94.8618017 L2.63548947,94.8618017 L-2.71575819,88.0678086 Z M27.0906913,94.8618017 L27.0371788,84.9382918 L22.2210559,93.0161898 L19.8665069,93.0161898 L15.0771403,85.2057721 L15.0771403,94.8618017 L10.1807487,94.8618017 L10.1807487,76.1381983 L14.5420155,76.1381983 L21.1240502,86.9443923 L27.5455474,76.1381983 L31.9068142,76.1381983 L31.9603267,94.8618017 L27.0906913,94.8618017 Z M48.2548758,91.2240735 L40.3350293,91.2240735 L38.8634362,94.8618017 L33.458676,94.8618017 L41.7263537,76.1381983 L46.9438202,76.1381983 L55.2382542,94.8618017 L49.7264689,94.8618017 L48.2548758,91.2240735 Z M46.703014,87.3188644 L44.2949525,81.3273111 L41.8868911,87.3188644 L46.703014,87.3188644 Z M64.9240121,89.886673 L62.0343384,89.886673 L62.0343384,94.8618017 L56.7366032,94.8618017 L56.7366032,76.1381983 L65.2985995,76.1381983 C66.99317,76.1381983 68.4647484,76.4190492 69.7133789,76.98076 C70.9620095,77.5424713 71.9252247,78.3449033 72.6030526,79.3880806 C73.2808805,80.431258 73.61979,81.6571959 73.61979,83.0659313 C73.61979,84.4211705 73.3031774,85.602529 72.6699432,86.610042 C72.0367089,87.6175556 71.1314653,88.4066138 69.9541853,88.9772408 L73.9943768,94.8618017 L68.3220547,94.8618017 L64.9240121,89.886673 Z M68.2685421,83.0659313 C68.2685421,82.1921592 67.9920637,81.5145498 67.4390989,81.0330833 C66.8861337,80.5516167 66.0656174,80.3108871 64.9775247,80.3108871 L62.0343384,80.3108871 L62.0343384,85.7942279 L64.9775247,85.7942279 C66.0656174,85.7942279 66.8861337,85.5579564 67.4390989,85.085406 C67.9920637,84.6128557 68.2685421,83.9397039 68.2685421,83.0659313 Z M83.7604042,88.0678086 L81.7804426,90.1809009 L81.7804426,94.8618017 L76.5362195,94.8618017 L76.5362195,76.1381983 L81.7804426,76.1381983 L81.7804426,83.9218678 L89.0313832,76.1381983 L94.8642432,76.1381983 L87.2119589,84.4300798 L95.2655863,94.8618017 L89.1116516,94.8618017 L83.7604042,88.0678086 Z" id="BOOKMARK" transform="translate(9.739271, 85.500000) rotate(-90.000000) translate(-9.739271, -85.500000) "></path>
        </g>
    </g>
</svg>