<?xml version="1.0" encoding="UTF-8"?>
<svg width="326px" height="37px" viewBox="0 0 326 37" version="1.1" xmlns="http://www.w3.org/2000/svg" xmlns:xlink="http://www.w3.org/1999/xlink">
    <!-- Generator: Sketch 43.2 (39069) - http://www.bohemiancoding.com/sketch -->
    <title>Artboard</title>
    <desc>Created with Sketch.</desc>
    <defs></defs>
    <g id="Page-1" stroke="none" stroke-width="1" fill="none" fill-rule="evenodd">
        <g id="Artboard" fill="#FFFFFF">
            <path d="M27.3502268,17.7420616 C29.3837111,18.4537811 30.9765832,19.563708 32.128891,21.0718755 C33.2811987,22.580043 33.857344,24.4016787 33.857344,26.5368372 C33.857344,29.6548464 32.6033808,32.0611 30.0954169,33.7556703 C27.5874529,35.4502405 23.961127,36.2975129 19.2163304,36.2975129 L0,36.2975129 L0,0.711715939 L18.1995933,0.711715939 C22.7410415,0.711715939 26.197913,1.55051562 28.5703113,3.22814015 C30.9427096,4.90576468 32.128891,7.16798201 32.128891,10.01486 C32.128891,11.7094302 31.7137275,13.2260478 30.8833881,14.5647583 C30.0530487,15.9034688 28.87534,16.9625593 27.3502268,17.7420616 Z M9.96402315,7.98138589 L9.96402315,14.844361 L16.8778351,14.844361 C20.2669756,14.844361 21.9615204,13.6920705 21.9615204,11.387455 C21.9615204,9.11673092 20.2669756,7.98138589 16.8778351,7.98138589 L9.96402315,7.98138589 Z M18.4029407,29.027843 C21.9276468,29.027843 23.6899734,27.8247161 23.6899734,25.4184264 C23.6899734,23.0121367 21.9276468,21.8090099 18.4029407,21.8090099 L9.96402315,21.8090099 L9.96402315,29.027843 L18.4029407,29.027843 Z M57.0389489,37.0092288 C53.2770029,37.0092288 49.896386,36.2127928 46.8969967,34.6198968 C43.8976074,33.0270007 41.5421901,30.8240925 39.8306742,28.0111059 C38.1191582,25.1981193 37.2634131,22.0293205 37.2634131,18.5046144 C37.2634131,14.9799083 38.1191582,11.8111095 39.8306742,8.99812295 C41.5421901,6.18513636 43.8976074,3.9822281 46.8969967,2.38933208 C49.896386,0.796436063 53.2770029,0 57.0389489,0 C60.8008948,0 64.1815117,0.796436063 67.180901,2.38933208 C70.1802903,3.9822281 72.5357076,6.18513636 74.2472235,8.99812295 C75.9587395,11.8111095 76.8144846,14.9799083 76.8144846,18.5046144 C76.8144846,22.0293205 75.9587395,25.1981193 74.2472235,28.0111059 C72.5357076,30.8240925 70.1802903,33.0270007 67.180901,34.6198968 C64.1815117,36.2127928 60.8008948,37.0092288 57.0389489,37.0092288 Z M57.0389489,28.671985 C58.8351933,28.671985 60.4619563,28.2483488 61.9192867,27.4010637 C63.3766171,26.5537785 64.5289076,25.3591245 65.3761927,23.8170655 C66.2234778,22.2750066 66.647114,20.5042073 66.647114,18.5046144 C66.647114,16.5050215 66.2234778,14.7342222 65.3761927,13.1921633 C64.5289076,11.6501044 63.3766171,10.4554503 61.9192867,9.60816518 C60.4619563,8.76088006 58.8351933,8.33724386 57.0389489,8.33724386 C55.2427044,8.33724386 53.6159414,8.76088006 52.158611,9.60816518 C50.7012806,10.4554503 49.5489901,11.6501044 48.701705,13.1921633 C47.8544199,14.7342222 47.4307837,16.5050215 47.4307837,18.5046144 C47.4307837,20.5042073 47.8544199,22.2750066 48.701705,23.8170655 C49.5489901,25.3591245 50.7012806,26.5537785 52.158611,27.4010637 C53.6159414,28.2483488 55.2427044,28.671985 57.0389489,28.671985 Z M100.046926,37.0092288 C96.2849804,37.0092288 92.9043635,36.2127928 89.9049742,34.6198968 C86.9055849,33.0270007 84.5501676,30.8240925 82.8386517,28.0111059 C81.1271357,25.1981193 80.2713906,22.0293205 80.2713906,18.5046144 C80.2713906,14.9799083 81.1271357,11.8111095 82.8386517,8.99812295 C84.5501676,6.18513636 86.9055849,3.9822281 89.9049742,2.38933208 C92.9043635,0.796436063 96.2849804,0 100.046926,0 C103.808872,0 107.189489,0.796436063 110.188878,2.38933208 C113.188268,3.9822281 115.543685,6.18513636 117.255201,8.99812295 C118.966717,11.8111095 119.822462,14.9799083 119.822462,18.5046144 C119.822462,22.0293205 118.966717,25.1981193 117.255201,28.0111059 C115.543685,30.8240925 113.188268,33.0270007 110.188878,34.6198968 C107.189489,36.2127928 103.808872,37.0092288 100.046926,37.0092288 Z M100.046926,28.671985 C101.843171,28.671985 103.469934,28.2483488 104.927264,27.4010637 C106.384595,26.5537785 107.536885,25.3591245 108.38417,23.8170655 C109.231455,22.2750066 109.655092,20.5042073 109.655092,18.5046144 C109.655092,16.5050215 109.231455,14.7342222 108.38417,13.1921633 C107.536885,11.6501044 106.384595,10.4554503 104.927264,9.60816518 C103.469934,8.76088006 101.843171,8.33724386 100.046926,8.33724386 C98.2506819,8.33724386 96.6239189,8.76088006 95.1665885,9.60816518 C93.7092581,10.4554503 92.5569676,11.6501044 91.7096825,13.1921633 C90.8623973,14.7342222 90.4387611,16.5050215 90.4387611,18.5046144 C90.4387611,20.5042073 90.8623973,22.2750066 91.7096825,23.8170655 C92.5569676,25.3591245 93.7092581,26.5537785 95.1665885,27.4010637 C96.6239189,28.2483488 98.2506819,28.671985 100.046926,28.671985 Z M138.835445,23.3849523 L135.073518,27.4010637 L135.073518,36.2975129 L125.109495,36.2975129 L125.109495,0.711715939 L135.073518,0.711715939 L135.073518,15.5052401 L148.850305,0.711715939 L159.932739,0.711715939 L145.393399,16.4711403 L160.695292,36.2975129 L149.002816,36.2975129 L138.835445,23.3849523 Z M195.467699,36.2975129 L195.366025,17.4370405 L186.215392,32.7897701 L181.741749,32.7897701 L172.641952,17.945409 L172.641952,36.2975129 L163.338808,36.2975129 L163.338808,0.711715939 L171.625215,0.711715939 L184.131081,21.2498045 L196.331926,0.711715939 L204.618333,0.711715939 L204.720006,36.2975129 L195.467699,36.2975129 Z M235.67965,29.3837009 L220.631941,29.3837009 L217.835914,36.2975129 L207.56687,36.2975129 L223.275458,0.711715939 L233.188644,0.711715939 L248.948068,36.2975129 L238.475677,36.2975129 L235.67965,29.3837009 Z M232.731112,21.9615204 L228.155795,10.5740654 L223.580479,21.9615204 L232.731112,21.9615204 Z M267.351009,26.8418583 L261.860629,26.8418583 L261.860629,36.2975129 L251.794932,36.2975129 L251.794932,0.711715939 L268.062725,0.711715939 C271.282408,0.711715939 274.078407,1.24549756 276.450806,2.3130768 C278.823204,3.38065605 280.653312,4.90574638 281.941186,6.88839356 C283.229059,8.87104073 283.872986,11.2010398 283.872986,13.8784608 C283.872986,16.4542076 283.271423,18.6994795 282.068278,20.6143438 C280.865133,22.5292082 279.14517,24.0288803 276.908337,25.1134053 L284.584702,36.2975129 L273.807289,36.2975129 L267.351009,26.8418583 Z M273.705616,13.8784608 C273.705616,12.217782 273.180307,10.9299279 272.129673,10.01486 C271.07904,9.09979208 269.520058,8.64226498 267.452683,8.64226498 L261.860629,8.64226498 L261.860629,19.0638198 L267.452683,19.0638198 C269.520058,19.0638198 271.07904,18.6147654 272.129673,17.7166432 C273.180307,16.818521 273.705616,15.5391396 273.705616,13.8784608 Z M303.140153,23.3849523 L299.378226,27.4010637 L299.378226,36.2975129 L289.414203,36.2975129 L289.414203,0.711715939 L299.378226,0.711715939 L299.378226,15.5052401 L313.155013,0.711715939 L324.237447,0.711715939 L309.698107,16.4711403 L325,36.2975129 L313.307524,36.2975129 L303.140153,23.3849523 Z" id="BOOKMARK"></path>
        </g>
    </g>
</svg>