<svg xmlns="http://www.w3.org/2000/svg" width="188.34" height="100.137"><path d="M30.834 19.353a10.883 10.883 0 015.213 3.632 9.53 9.53 0 011.885 5.961 8.949 8.949 0 01-4.1 7.874q-4.1 2.773-11.867 2.773H1V.78h19.852q7.431 0 11.312 2.745a8.616 8.616 0 013.882 7.4 9.222 9.222 0 01-1.359 4.963 9.5 9.5 0 01-3.853 3.465zM11.869 8.706v7.486h7.541q5.545 0 5.545-3.771 0-3.715-5.545-3.715zm9.205 22.957q5.767 0 5.767-3.937t-5.767-3.937h-9.205v7.874zm46.144 8.707a23.217 23.217 0 01-11.063-2.606 19.582 19.582 0 01-7.708-7.209 19.553 19.553 0 01-2.8-10.37 19.553 19.553 0 012.8-10.37 19.582 19.582 0 017.708-7.209A23.217 23.217 0 0167.218 0a23.217 23.217 0 0111.063 2.606 19.582 19.582 0 017.708 7.209 19.553 19.553 0 012.8 10.37 19.553 19.553 0 01-2.8 10.37 19.582 19.582 0 01-7.708 7.209 23.217 23.217 0 01-11.063 2.606zm0-9.094a10.4 10.4 0 005.323-1.386 9.972 9.972 0 003.771-3.91 11.837 11.837 0 001.388-5.8 11.837 11.837 0 00-1.388-5.79 9.972 9.972 0 00-3.77-3.91 10.914 10.914 0 00-10.647 0 9.972 9.972 0 00-3.771 3.91 11.837 11.837 0 00-1.386 5.79 11.837 11.837 0 001.386 5.8 9.972 9.972 0 003.771 3.909 10.4 10.4 0 005.323 1.391zm50.913 9.094a23.217 23.217 0 01-11.063-2.606 19.582 19.582 0 01-7.708-7.209 19.553 19.553 0 01-2.8-10.375 19.553 19.553 0 012.8-10.37 19.582 19.582 0 017.708-7.209 24.782 24.782 0 0122.126 0 19.582 19.582 0 017.706 7.214 19.553 19.553 0 012.8 10.365 19.553 19.553 0 01-2.8 10.37 19.582 19.582 0 01-7.708 7.209 23.217 23.217 0 01-11.061 2.611zm0-9.094a10.4 10.4 0 005.323-1.386 9.972 9.972 0 003.771-3.909 11.837 11.837 0 001.387-5.801 11.837 11.837 0 00-1.386-5.79 9.972 9.972 0 00-3.771-3.91 10.914 10.914 0 00-10.647 0 9.972 9.972 0 00-3.771 3.91 11.837 11.837 0 00-1.386 5.79 11.837 11.837 0 001.386 5.795 9.972 9.972 0 003.771 3.909 10.4 10.4 0 005.323 1.396zm46.311-5.767l-4.1 4.381v9.7H149.47V.78h10.869v16.133L175.366.78h12.089L171.6 17.967l16.691 21.627h-12.759zM35.046 100.137l-.111-20.573-9.981 16.747h-4.88L10.148 80.12v20.017H0V61.32h9.039l13.641 22.4 13.309-22.4h9.039l.111 38.817zm47.863-7.542H66.5l-3.05 7.542h-11.2L69.379 61.32h10.813l17.19 38.817H85.959zm-3.216-8.1L74.7 72.078l-4.988 12.421zm41.764 5.325h-5.989v10.317h-10.98V61.32h17.745a22.139 22.139 0 019.15 1.747 13.569 13.569 0 015.989 4.991 13.683 13.683 0 012.107 7.624 13.52 13.52 0 01-1.969 7.348 13.315 13.315 0 01-5.628 4.908l8.373 12.2H128.5zm6.931-14.138a5.291 5.291 0 00-1.719-4.214 7.572 7.572 0 00-5.1-1.5h-6.1v11.37h6.1a7.671 7.671 0 005.1-1.47 5.206 5.206 0 001.719-4.186zm36.112 10.37l-4.1 4.381v9.7h-10.877V61.32h10.869v16.137L175.42 61.32h12.089l-15.86 17.19 16.691 21.627h-12.754z" fill="#f6ce5d"/></svg>