<svg width="20" height="172" xmlns="http://www.w3.org/2000/svg"><path d="M9.338 156.631c.375-1.07.959-1.908 1.752-2.515.794-.606 1.752-.91 2.875-.91 1.641 0 2.907.66 3.799 1.98.891 1.32 1.337 3.23 1.337 5.726v10.114H.377v-9.578c0-2.39.442-4.21 1.324-5.459.883-1.248 2.073-1.873 3.571-1.873.892 0 1.69.219 2.394.656.705.437 1.262 1.057 1.672 1.86zm-5.136 9.151h3.611v-3.639c0-1.784-.606-2.675-1.818-2.675-1.195 0-1.793.891-1.793 2.675v3.64zm11.074-4.441c0-1.856-.633-2.783-1.899-2.783s-1.9.927-1.9 2.783v4.441h3.8v-4.441zm4.2-20.335c0 1.98-.42 3.76-1.258 5.338-.838 1.578-1.997 2.818-3.477 3.719-1.48.9-3.147 1.351-5.002 1.351-1.854 0-3.522-.45-5.002-1.351s-2.639-2.14-3.477-3.72c-.838-1.578-1.257-3.357-1.257-5.337 0-1.98.419-3.76 1.257-5.338.838-1.579 1.997-2.818 3.477-3.72 1.48-.9 3.148-1.35 5.002-1.35 1.855 0 3.522.45 5.002 1.35 1.48.902 2.64 2.141 3.477 3.72.838 1.579 1.258 3.358 1.258 5.338zm-4.387 0c0-.946-.223-1.802-.669-2.569a4.81 4.81 0 00-1.886-1.82c-.81-.445-1.743-.668-2.795-.668-1.052 0-1.984.223-2.795.669a4.81 4.81 0 00-1.886 1.82c-.445.766-.668 1.622-.668 2.568 0 .945.223 1.801.668 2.568a4.81 4.81 0 001.886 1.82c.811.446 1.743.669 2.795.669 1.052 0 1.984-.223 2.795-.67a4.81 4.81 0 001.886-1.819c.446-.767.669-1.623.669-2.568zm4.387-22.636c0 1.98-.42 3.76-1.258 5.338-.838 1.579-1.997 2.818-3.477 3.719-1.48.9-3.147 1.351-5.002 1.351-1.854 0-3.522-.45-5.002-1.351-1.48-.9-2.639-2.14-3.477-3.72C.422 122.13.003 120.35.003 118.37c0-1.98.419-3.76 1.257-5.338.838-1.578 1.997-2.818 3.477-3.719 1.48-.9 3.148-1.351 5.002-1.351 1.855 0 3.522.45 5.002 1.351 1.48.9 2.64 2.14 3.477 3.72.838 1.578 1.258 3.357 1.258 5.337zm-4.387 0c0-.945-.223-1.802-.669-2.569a4.81 4.81 0 00-1.886-1.819c-.81-.446-1.743-.669-2.795-.669-1.052 0-1.984.223-2.795.669a4.81 4.81 0 00-1.886 1.82c-.445.766-.668 1.623-.668 2.568 0 .945.223 1.802.668 2.569a4.81 4.81 0 001.886 1.82c.811.445 1.743.668 2.795.668 1.052 0 1.984-.223 2.795-.669a4.81 4.81 0 001.886-1.82c.446-.766.669-1.623.669-2.568zm-2.782-20.415l2.113 1.98h4.681v5.244H.377v-5.244h7.784l-7.784-7.25V86.85l8.292 7.652 10.432-8.053v6.154l-6.794 5.351zm6.794-29.806l-9.923.053 8.077 4.816v2.355l-7.81 4.79h9.656v4.896H.377v-4.362l10.807-6.582L.377 67.694v-4.362l18.724-.053v4.87zm-3.638-21.165v7.92l3.638 1.472v5.405L.377 53.513v-5.218l18.724-8.294v5.512l-3.638 1.471zm-3.905 1.552l-5.991 2.408 5.991 2.408v-4.816zm2.568-18.22v2.889H19.1v5.298H.377V29.94c0-1.695.281-3.166.843-4.415.562-1.249 1.364-2.212 2.407-2.89 1.044-.678 2.27-1.017 3.678-1.017 1.355 0 2.537.317 3.544.95 1.008.634 1.797 1.539 2.368 2.716l5.884-4.04v5.672l-4.975 3.398zm-6.82-3.345c-.875 0-1.552.276-2.034.83-.481.552-.722 1.373-.722 2.46v2.944h5.483v-2.943c0-1.088-.236-1.909-.708-2.462-.473-.553-1.146-.83-2.02-.83zm5.001-15.492l2.113 1.98h4.681v5.244H.377V13.46h7.784L.377 6.208V.375L8.67 8.027 19.101-.026v6.154l-6.794 5.35z" fill="#FFF"/></svg>